<?xml version="1.0" encoding="utf-8"?>
<!-- Generator: Adobe Illustrator 17.0.2, SVG Export Plug-In . SVG Version: 6.00 Build 0)  -->
<!DOCTYPE svg PUBLIC "-//W3C//DTD SVG 1.1//EN" "http://www.w3.org/Graphics/SVG/1.1/DTD/svg11.dtd">
<svg version="1.1" id="Layer_1" xmlns="http://www.w3.org/2000/svg" xmlns:xlink="http://www.w3.org/1999/xlink" x="0px" y="0px"
	 width="4000px" height="4000px" viewBox="0 0 4000 4000" enable-background="new 0 0 4000 4000" xml:space="preserve">
<g id="Foreground">
</g>
<g id="Static">
	<polyline fill="#8B7765" points="408.736,3534.91 598.736,3534.91 598.736,3544.91 408.736,3544.91 	"/>
	<g>
		
			<rect x="1484.616" y="1490.687" fill="#008888" stroke="#FFFFFF" stroke-width="4" stroke-miterlimit="10" width="245" height="16.458"/>
		
			<rect x="1995.791" y="1553.693" fill="#008888" stroke="#FFFFFF" stroke-width="4" stroke-miterlimit="10" width="245" height="16.458"/>
		
			<rect x="1948.617" y="1184.656" fill="#008888" stroke="#FFFFFF" stroke-width="4" stroke-miterlimit="10" width="245" height="16.458"/>
		
			<rect x="1314.238" y="1004.638" fill="#008888" stroke="#FFFFFF" stroke-width="4" stroke-miterlimit="10" width="245" height="16.458"/>
		
			<rect x="1836.238" y="833.621" fill="#008888" stroke="#FFFFFF" stroke-width="4" stroke-miterlimit="10" width="245" height="16.458"/>
		
			<rect x="2268.156" y="1091.702" fill="#008888" stroke="#FFFFFF" stroke-width="4" stroke-miterlimit="10" width="245" height="16.458"/>
		
			<rect x="2390.656" y="1474.229" fill="#008888" stroke="#FFFFFF" stroke-width="4" stroke-miterlimit="10" width="245" height="16.458"/>
		
			<rect x="913.332" y="1297.124" fill="#008888" stroke="#FFFFFF" stroke-width="4" stroke-miterlimit="10" width="245" height="16.458"/>
		
			<rect x="756.817" y="791.617" fill="#008888" stroke="#FFFFFF" stroke-width="4" stroke-miterlimit="10" width="245" height="16.458"/>
		
			<rect x="1187.381" y="488.586" fill="#008888" stroke="#FFFFFF" stroke-width="4" stroke-miterlimit="10" width="245" height="16.458"/>
		
			<rect x="2102.636" y="539.592" fill="#008888" stroke="#FFFFFF" stroke-width="4" stroke-miterlimit="10" width="245" height="16.458"/>
		
			<rect x="3012.492" y="798.558" fill="#008888" stroke="#FFFFFF" stroke-width="4" stroke-miterlimit="10" width="245" height="16.458"/>
		
			<rect x="2707.014" y="1338.168" fill="#008888" stroke="#FFFFFF" stroke-width="4" stroke-miterlimit="10" width="245" height="16.458"/>
	</g>
	<rect x="3163.353" y="3497.41" fill="#8888ED" width="427" height="37.5"/>
	<polyline fill="#8B7765" points="589.897,3534.91 1086.372,3184.938 1086.372,3534.91 	"/>
	<polyline fill="#8B7765" points="1292.017,3535.375 1292.017,3186.734 1714.446,2837.002 1714.446,3535.375 	"/>
	<rect x="408.736" y="1809.41" fill="#8B7765" width="219.151" height="16"/>
	<rect x="806.936" y="1809.41" fill="#8B7765" width="2784.328" height="16"/>
	<polyline fill="#8B7765" points="627.887,1809.41 867.236,2025.41 867.236,2043.41 627.887,1825.41 	"/>
	
		<rect x="2667.01" y="954.591" fill="#008888" stroke="#FFFFFF" stroke-width="4" stroke-miterlimit="10" width="245" height="16.458"/>
	
		<rect x="3012.492" y="1168.198" fill="#008888" stroke="#FFFFFF" stroke-width="4" stroke-miterlimit="10" width="245" height="16.458"/>
	
		<rect x="2641.989" y="523.134" fill="#008888" stroke="#FFFFFF" stroke-width="4" stroke-miterlimit="10" width="245" height="16.458"/>
	
		<rect x="1172.664" y="1338.168" fill="#008888" stroke="#FFFFFF" stroke-width="4" stroke-miterlimit="10" width="245" height="16.458"/>
	
		<rect x="1573.144" y="1269.575" fill="#008888" stroke="#FFFFFF" stroke-width="4" stroke-miterlimit="10" width="245" height="16.458"/>
	
		<rect x="2432.601" y="1665.172" fill="#008888" stroke="#FFFFFF" stroke-width="4" stroke-miterlimit="10" width="245" height="16.458"/>
	
		<rect x="1591.238" y="1656.943" fill="#008888" stroke="#FFFFFF" stroke-width="4" stroke-miterlimit="10" width="245" height="16.458"/>
	
		<rect x="1081.123" y="1627.677" fill="#008888" stroke="#FFFFFF" stroke-width="4" stroke-miterlimit="10" width="245" height="16.458"/>
</g>
<g id="Special">
	<circle id="Player" fill="#FF8877" cx="468.484" cy="3494.331" r="38.998"/>
	<rect id="Goal" x="3279.365" y="455.09" fill="#00FFFF" width="200" height="200"/>
</g>
<g id="Dynamic">
	
		<rect x="1935.877" y="2838.477" fill="#888800" stroke="#FFFFFF" stroke-width="4" stroke-miterlimit="10" width="245" height="16.458"/>
	
		<rect x="2372.44" y="2838.477" fill="#888800" stroke="#FFFFFF" stroke-width="4" stroke-miterlimit="10" width="245" height="16.458"/>
	
		<rect x="2818.81" y="2838.477" fill="#888800" stroke="#FFFFFF" stroke-width="4" stroke-miterlimit="10" width="245" height="16.458"/>
	
		<rect x="1934.114" y="2109.045" fill="#888800" stroke="#FFFFFF" stroke-width="4" stroke-miterlimit="10" width="245" height="16.458"/>
	
		<rect x="2370.677" y="2109.045" fill="#888800" stroke="#FFFFFF" stroke-width="4" stroke-miterlimit="10" width="245" height="16.458"/>
	
		<rect x="2817.048" y="2109.045" fill="#888800" stroke="#FFFFFF" stroke-width="4" stroke-miterlimit="10" width="245" height="16.458"/>
	<polyline fill="#8B0065" points="578.978,1783.41 578.978,1809.41 846.099,1809.41 846.099,1783.41 	"/>
	
		<rect x="1015.541" y="2109.045" fill="#888800" stroke="#FFFFFF" stroke-width="4" stroke-miterlimit="10" width="245" height="16.458"/>
	
		<rect x="1461.912" y="2109.045" fill="#888800" stroke="#FFFFFF" stroke-width="4" stroke-miterlimit="10" width="245" height="16.458"/>
</g>
<g id="Joints">
	<circle fill="#CCCC00" stroke="#FFFFFF" stroke-miterlimit="10" cx="2058.377" cy="2846.706" r="10.704"/>
	<circle fill="#CCCC00" stroke="#FFFFFF" stroke-miterlimit="10" cx="2494.94" cy="2846.706" r="10.704"/>
	<circle fill="#CCCC00" stroke="#FFFFFF" stroke-miterlimit="10" cx="2941.31" cy="2846.706" r="10.704"/>
	<circle fill="#CCCC00" stroke="#FFFFFF" stroke-miterlimit="10" cx="2056.614" cy="2117.274" r="10.704"/>
	<circle fill="#CCCC00" stroke="#FFFFFF" stroke-miterlimit="10" cx="2493.177" cy="2117.274" r="10.704"/>
	<circle fill="#CCCC00" stroke="#FFFFFF" stroke-miterlimit="10" cx="2939.548" cy="2117.274" r="10.704"/>
	<circle fill="#CCCC00" stroke="#FFFFFF" stroke-miterlimit="10" cx="1138.041" cy="2117.274" r="10.704"/>
	<circle fill="#CCCC00" stroke="#FFFFFF" stroke-miterlimit="10" cx="1584.412" cy="2117.274" r="10.704"/>
</g>
<g id="Lasers">
</g>
<g id="Background">
	<text transform="matrix(1 0 0 1 429.4861 3312.3655)" font-family="'MyriadPro-Regular'" font-size="24">Climb</text>
</g>
</svg>
