<?xml version="1.0" encoding="utf-8"?>
<!-- Generator: Adobe Illustrator 17.0.2, SVG Export Plug-In . SVG Version: 6.00 Build 0)  -->
<!DOCTYPE svg PUBLIC "-//W3C//DTD SVG 1.1//EN" "http://www.w3.org/Graphics/SVG/1.1/DTD/svg11.dtd">
<svg version="1.1" id="Layer_1" xmlns="http://www.w3.org/2000/svg" xmlns:xlink="http://www.w3.org/1999/xlink" x="0px" y="0px"
	 width="3200px" height="3200px" viewBox="0 0 3200 3200" enable-background="new 0 0 3200 3200" xml:space="preserve">
<g id="Fields">
	<polyline opacity="0.5" fill="#888888" enable-background="new    " points="1793.927,1264.398 1987.817,1600.226 2775.093,1600 
		2187.547,582.34 	"/>
	<polyline opacity="0.5" fill="#888888" enable-background="new    " points="1793.927,1264.398 1600.036,1600.226 
		1987.817,1600.226 	"/>
	<polyline opacity="0.5" fill="#888888" enable-background="new    " points="1406.428,1264.48 1794.209,1264.48 2187.546,582.71 
		1012.454,582.71 	"/>
	<polyline opacity="0.5" fill="#888888" enable-background="new    " points="1406.428,1264.48 1600.319,1600.308 1794.209,1264.48 
			"/>
	<polyline opacity="0.5" fill="#888888" enable-background="new    " points="1212.397,1598.942 1406.428,1264.48 1012.24,582.958 
		424.693,1600.618 	"/>
	<polyline opacity="0.5" fill="#888888" enable-background="new    " points="1212.397,1600.146 1600.178,1600.146 
		1406.288,1264.318 	"/>
	<polyline opacity="0.5" fill="#888888" enable-background="new    " points="1405.864,1931.521 1212.397,1598.942 
		425.121,1599.043 1012.667,2616.703 	"/>
	<polyline opacity="0.5" fill="#888888" enable-background="new    " points="1406.287,1934.77 1600.178,1598.942 
		1212.397,1598.942 	"/>
	<polyline opacity="0.5" fill="#888888" enable-background="new    " points="1793.786,1935.096 1405.864,1931.521 
		1012.454,2611.533 2187.546,2611.533 	"/>
	<polyline opacity="0.5" fill="#888888" enable-background="new    " points="1793.645,1934.77 1599.754,1598.942 1405.864,1934.77 
			"/>
	<polyline opacity="0.5" fill="#888888" enable-background="new    " points="1987.676,1599.268 1793.786,1935.096 
		2187.761,2616.455 2775.308,1598.796 	"/>
	<polyline opacity="0.5" fill="#888888" enable-background="new    " points="1987.676,1599.268 1599.896,1599.268 
		1793.786,1935.096 	"/>
	
		<line fill="none" stroke="#000000" stroke-width="10" stroke-miterlimit="10" x1="1238.032" y1="1564.482" x2="1523.309" y2="1849.758"/>
	
		<line fill="none" stroke="#000000" stroke-width="10" stroke-miterlimit="10" x1="620.455" y1="1871.339" x2="977.225" y2="1775.742"/>
	
		<line fill="none" stroke="#000000" stroke-width="10" stroke-miterlimit="10" x1="1340.193" y1="2583.971" x2="1415.526" y2="2302.828"/>
	
		<line fill="none" stroke="#000000" stroke-width="10" stroke-miterlimit="10" x1="2324.491" y1="2319.592" x2="2141.949" y2="2137.051"/>
	
		<line fill="none" stroke="#000000" stroke-width="10" stroke-miterlimit="10" x1="2582.983" y1="1344.559" x2="2229.26" y2="1439.339"/>
	
		<line fill="none" stroke="#000000" stroke-width="10" stroke-miterlimit="10" x1="1432.068" y1="1211.251" x2="1303.045" y2="1692.769"/>
	
		<line fill="none" stroke="#000000" stroke-width="10" stroke-miterlimit="10" x1="753.303" y1="949.404" x2="1038.579" y2="1234.681"/>
	
		<line fill="none" stroke="#000000" stroke-width="10" stroke-miterlimit="10" x1="1396.735" y1="1940.339" x2="1753.506" y2="1844.742"/>
	
		<line fill="none" stroke="#000000" stroke-width="10" stroke-miterlimit="10" x1="1786.834" y1="1889.983" x2="1862.166" y2="1608.84"/>
	
		<line fill="none" stroke="#000000" stroke-width="10" stroke-miterlimit="10" x1="1953.437" y1="1593.626" x2="1770.895" y2="1411.084"/>
	
		<line fill="none" stroke="#000000" stroke-width="10" stroke-miterlimit="10" x1="1731.582" y1="1318.779" x2="1377.859" y2="1413.559"/>
	
		<line fill="none" stroke="#000000" stroke-width="10" stroke-miterlimit="10" x1="1736.289" y1="693.963" x2="1607.266" y2="1175.481"/>
</g>
<g id="Foreground">
</g>
<g id="Dynamic">
	<circle fill="#776655" cx="977.225" cy="560.264" r="38.608"/>
	<circle fill="#AA9988" cx="629.746" cy="1542.698" r="38.608"/>
	<circle fill="#998877" cx="562.182" cy="1273.097" r="28.956"/>
	
		<rect x="793.035" y="951.182" transform="matrix(0.7511 -0.6602 0.6602 0.7511 -483.8499 788.3887)" fill="#8B7765" width="21.194" height="169.382"/>
	
		<rect x="1335.147" y="756.363" transform="matrix(0.7511 -0.6602 0.6602 0.7511 -220.2962 1097.7964)" fill="#BBBBBB" width="21.194" height="169.382"/>
	
		<rect x="1218.756" y="1312.215" transform="matrix(0.6774 0.7356 -0.7356 0.6774 1478.0632 -437.6883)" fill="#8B7765" width="38.554" height="308.11"/>
	
		<rect x="1523.238" y="1902.903" transform="matrix(0.7511 -0.6602 0.6602 0.7511 -930.4197 1507.3538)" fill="#8B7765" width="21.194" height="169.382"/>
	<rect x="1281.872" y="1736.391" fill="#555555" width="81.671" height="78.701"/>
	<rect x="1834.294" y="1687.621" fill="#8B7765" width="81.671" height="78.701"/>
	<circle fill="#8B7765" cx="1469.963" cy="1273.097" r="67.164"/>
	<rect x="1775.782" y="1524.941" fill="#8B7765" width="36.854" height="35.513"/>
	<rect x="1413.641" y="1395.802" fill="#8B7765" width="36.854" height="35.513"/>
	<polygon fill="#888888" points="2642.171,1771.852 2621.319,1763.088 2618.484,1740.648 2636.5,1726.972 2657.351,1735.736 
		2660.187,1758.177 	"/>
	<polyline fill="#555555" points="1730.246,1172.996 1730.246,1373.198 1857.043,1301.198 	"/>
	<polyline fill="#887766" points="1673.659,1941.075 1717.659,1889.983 1695.659,2125.983 1673.659,2181.983 	"/>
	<polyline fill="#999999" points="1739.817,1808.244 1721.437,1884.244 1769.817,1948.244 1849.182,1948.244 1866.98,1878.244 
		1849.182,1833.784 1799.817,1794.433 	"/>
</g>
<g id="Background">
</g>
<g id="Joints">
</g>
<g id="Special">
	<circle id="Player" fill="#FF8877" cx="788.14" cy="691.231" r="30"/>
	<polygon id="Goal" fill="#00FFFF" points="1566.917,1657.299 1533.835,1600 1566.917,1542.698 1633.082,1542.698 1666.165,1600 
		1633.082,1657.299 	"/>
</g>
</svg>
