<?xml version="1.0" encoding="utf-8"?>
<!-- Generator: Adobe Illustrator 17.0.0, SVG Export Plug-In . SVG Version: 6.00 Build 0)  -->
<!DOCTYPE svg PUBLIC "-//W3C//DTD SVG 1.1//EN" "http://www.w3.org/Graphics/SVG/1.1/DTD/svg11.dtd">
<svg version="1.1" id="Layer_1" xmlns="http://www.w3.org/2000/svg" xmlns:xlink="http://www.w3.org/1999/xlink" x="0px" y="0px"
	 width="1600px" height="900px" viewBox="0 0 1600 900" enable-background="new 0 0 1600 900" xml:space="preserve">
<g id="Foreground">
</g>
<g id="Background">
</g>
<g id="Collision">
	<rect x="888.007" y="643.75" fill="#00FFFF" width="200" height="200"/>
	<polyline fill="#880000" points="1333.564,900.25 1256.479,843.75 1020.079,844.5 825.089,844.5 31.629,843.75 32,27.75 
		1558.552,30.442 1554.135,845.5 1256.479,843.75 1333.564,900.25 1600,900.25 1600,0.25 0,-0.25 0,900.25 0,900.25 	"/>
</g>
<g id="Dynamic">
	<circle fill="#0000FF" cx="76.627" cy="605.502" r="38.998"/>
</g>
<text transform="matrix(1 0 0 1 60.1274 85.1088)" font-family="'MyriadPro-Regular'" font-size="40">Knock down the blocks to get to the goal</text>
<rect x="855.384" y="604.752" fill="#008800" width="26.249" height="238.998"/>
<rect x="1094.382" y="604.752" fill="#008800" width="26.249" height="238.998"/>
<rect x="749.009" y="341.004" fill="#008800" width="26.249" height="238.998"/>
<rect x="974.883" y="341.004" fill="#008800" width="26.249" height="238.998"/>
<rect x="749.009" y="314.756" fill="#008800" width="238.998" height="26.249"/>
<rect x="988.007" y="314.756" fill="#008800" width="238.998" height="26.249"/>
<rect x="1200.757" y="341.004" fill="#008800" width="26.249" height="238.998"/>
<rect x="868.508" y="75.758" fill="#008800" width="26.249" height="238.998"/>
<rect x="1081.258" y="75.758" fill="#008800" width="26.249" height="238.998"/>
<rect x="868.508" y="49.509" fill="#008800" width="238.998" height="26.249"/>
<rect x="629.51" y="580.002" fill="#008800" width="238.998" height="26.249"/>
<rect x="868.509" y="580.002" fill="#008800" width="238.998" height="26.249"/>
<rect x="1107.507" y="580.002" fill="#008800" width="238.998" height="26.249"/>
<rect x="629.51" y="606.251" fill="#008800" width="26.249" height="238.998"/>
<rect x="1320.256" y="606.251" fill="#008800" width="26.249" height="238.998"/>
</svg>
