<?xml version="1.0" encoding="utf-8"?>
<!-- Generator: Adobe Illustrator 17.0.0, SVG Export Plug-In . SVG Version: 6.00 Build 0)  -->
<!DOCTYPE svg PUBLIC "-//W3C//DTD SVG 1.1//EN" "http://www.w3.org/Graphics/SVG/1.1/DTD/svg11.dtd">
<svg version="1.1" id="Layer_1" xmlns="http://www.w3.org/2000/svg" xmlns:xlink="http://www.w3.org/1999/xlink" x="0px" y="0px"
	 width="1600px" height="900px" viewBox="0 0 1600 900" enable-background="new 0 0 1600 900" xml:space="preserve">
<g id="Foreground">
</g>
<g id="Background">
</g>
<g id="Collision">
	<rect x="1256.479" y="644.5" fill="#00FFFF" width="200" height="200"/>
	<polyline fill="#880000" points="1333.564,901 1256.479,844.5 1256.479,844.5 1256.479,844.5 516.998,355 33.199,355 32,28.5 
		1558.552,31.192 1554.135,846.25 1256.479,844.5 1333.564,901 1600,901 1600,1 0,0.5 0,901 0,901 	"/>
</g>
<g id="Dynamic">
	<circle fill="#0000FF" cx="127.122" cy="316.002" r="38.998"/>
</g>
<g id="Dynamic_1_">
	<circle fill="#008800" cx="374.639" cy="316.002" r="38.998"/>
</g>
<rect x="778.591" y="355" fill="#008800" width="21.409" height="171.087"/>
<rect x="1020.462" y="513.994" fill="#008800" width="21.409" height="171.087"/>
<circle fill="#FF0000" cx="789.296" cy="365.704" r="10.704"/>
<circle fill="#FF0000" cx="1031.166" cy="526.087" r="10.704"/>
<text transform="matrix(1 0 0 1 60.1274 85.1088)" font-family="'MyriadPro-Regular'" font-size="40">Draw paths on screen for your character to follow</text>
<text transform="matrix(1 0 0 1 60.1274 133.1088)" font-family="'MyriadPro-Regular'" font-size="40">Push the ball into the goal in the bottom right</text>
</svg>
