<?xml version="1.0" encoding="utf-8"?>
<!-- Generator: Adobe Illustrator 17.0.2, SVG Export Plug-In . SVG Version: 6.00 Build 0)  -->
<!DOCTYPE svg PUBLIC "-//W3C//DTD SVG 1.1//EN" "http://www.w3.org/Graphics/SVG/1.1/DTD/svg11.dtd">
<svg version="1.1" id="Layer_1" xmlns="http://www.w3.org/2000/svg" xmlns:xlink="http://www.w3.org/1999/xlink" x="0px" y="0px"
	 width="1600px" height="900px" viewBox="0 0 1600 900" enable-background="new 0 0 1600 900" xml:space="preserve">
<g id="Foreground">
</g>
<g id="Background">
</g>
<g id="Joints">
</g>
<g id="Static">
	<polyline fill="#8B7765" points="1333.564,901 1200,870 30,870 30,355 30,30 1570,31.192 1570,870 1200,870 1333.564,901 1600,901 
		1600,1 0,0.5 0,901 0,901 	"/>
	<rect x="29.125" y="768.538" fill="#8B7765" width="85.875" height="22.408"/>
	<rect x="746.188" y="720.382" fill="#8B7765" width="85.875" height="22.408"/>
</g>
<g id="Special">
	<circle id="Player" fill="#FF8877" cx="84.931" cy="730.541" r="38.998"/>
	<rect id="Goal" x="1370" y="669.538" fill="#00FFFF" width="200" height="200"/>
</g>
<g id="Dynamic">
	<circle fill="#8B7765" cx="423.927" cy="832.495" r="38.998"/>
</g>
<g id="Lasers">
	<line fill="none" stroke="#FF0000" stroke-width="4" stroke-miterlimit="10" x1="29.125" y1="844.5" x2="1570" y2="844.5"/>
	<line fill="none" stroke="#FF0000" stroke-width="4" stroke-miterlimit="10" x1="1571" y1="844.5" x2="30.125" y2="844.5"/>
	<line fill="none" stroke="#FF0000" stroke-width="4" stroke-miterlimit="10" x1="1571" y1="668.538" x2="30.125" y2="668.538"/>
</g>
</svg>
