<?xml version="1.0" encoding="utf-8"?>
<!-- Generator: Adobe Illustrator 17.0.1, SVG Export Plug-In . SVG Version: 6.00 Build 0)  -->
<!DOCTYPE svg PUBLIC "-//W3C//DTD SVG 1.1//EN" "http://www.w3.org/Graphics/SVG/1.1/DTD/svg11.dtd">
<svg version="1.1" id="Layer_1" xmlns="http://www.w3.org/2000/svg" xmlns:xlink="http://www.w3.org/1999/xlink" x="0px" y="0px"
	 width="1600px" height="900px" viewBox="0 0 1600 900" enable-background="new 0 0 1600 900" xml:space="preserve">
<g id="Foreground">
</g>
<g id="Background">
</g>
<g id="Joints">
</g>
<g id="Static">
	<polyline fill="#8B7765" points="1333.564,901 1200,870 30,870 30,355 30,30 1570,31.192 1570,870 1200,870 1333.564,901 1600,901 
		1600,1 0,0.5 0,901 0,901 	"/>
	<rect x="746.188" y="655.998" fill="#8B7765" width="85.875" height="85.875"/>
	<rect x="384.929" y="392.938" fill="#8B7765" width="85.875" height="85.875"/>
	<rect x="30.125" y="769.538" fill="#8B7765" width="85.875" height="85.875"/>
	<rect x="1211.906" y="291.444" fill="#8B7765" width="85.875" height="85.875"/>
	<rect x="746.188" y="197.954" fill="#8B7765" width="85.875" height="85.875"/>
</g>
<g id="Special">
	<circle id="Player" fill="#FF8877" cx="84.931" cy="730.541" r="38.998"/>
	<rect id="Goal" x="1370" y="669.538" fill="#00FFFF" width="200" height="200"/>
</g>
<g id="Dynamic">
	<circle fill="#8B7765" cx="423.927" cy="832.495" r="38.998"/>
	<g id="Dynamic_4_">
		<circle fill="#8B7765" cx="789.125" cy="161.318" r="38.998"/>
	</g>
</g>
<g id="Lasers">
	<line fill="none" stroke="#FF0000" stroke-width="4" stroke-miterlimit="10" x1="109.996" y1="844.5" x2="1570" y2="844.5"/>
	<line fill="none" stroke="#FF0000" stroke-width="4" stroke-miterlimit="10" x1="1650.871" y1="844.5" x2="109.996" y2="844.5"/>
	<line fill="none" stroke="#FF0000" stroke-width="4" stroke-miterlimit="10" x1="746.188" y1="668.538" x2="30.125" y2="668.538"/>
	<line fill="none" stroke="#FF0000" stroke-width="4" stroke-miterlimit="10" x1="384.929" y1="392.938" x2="30" y2="30"/>
	
		<line fill="none" stroke="#FF0000" stroke-width="4" stroke-miterlimit="10" x1="1211.906" y1="334.381" x2="470.804" y2="435.875"/>
	
		<line fill="none" stroke="#FF0000" stroke-width="4" stroke-miterlimit="10" x1="1211.906" y1="377.319" x2="832.063" y2="655.998"/>
	<line fill="none" stroke="#FF0000" stroke-width="4" stroke-miterlimit="10" x1="832.063" y1="741.873" x2="1370" y2="669.538"/>
	<line fill="none" stroke="#FF0000" stroke-width="4" stroke-miterlimit="10" x1="1570" y1="669.538" x2="1297.781" y2="377.319"/>
	<line fill="none" stroke="#FF0000" stroke-width="4" stroke-miterlimit="10" x1="1570" y1="31.192" x2="1297.781" y2="291.444"/>
	<line fill="none" stroke="#FF0000" stroke-width="4" stroke-miterlimit="10" x1="832.063" y1="31.192" x2="833.063" y2="197.954"/>
</g>
</svg>
