<?xml version="1.0" encoding="utf-8"?>
<!-- Generator: Adobe Illustrator 17.0.1, SVG Export Plug-In . SVG Version: 6.00 Build 0)  -->
<!DOCTYPE svg PUBLIC "-//W3C//DTD SVG 1.1//EN" "http://www.w3.org/Graphics/SVG/1.1/DTD/svg11.dtd">
<svg version="1.1" id="Layer_1" xmlns="http://www.w3.org/2000/svg" xmlns:xlink="http://www.w3.org/1999/xlink" x="0px" y="0px"
	 width="3200px" height="3200px" viewBox="0 0 3200 3200" enable-background="new 0 0 3200 3200" xml:space="preserve">
<g id="Foreground">
</g>
<g id="Static">
	<polyline fill="#8B7765" points="10,3190 10,10 3190,10 3190,3190 10,3190 0,3200 3200,3200 3200,0 0,0 0,3200 10,3190 	"/>
	<g>
		
			<rect x="1085.88" y="1145.777" fill="#008888" stroke="#FFFFFF" stroke-width="4" stroke-miterlimit="10" width="245" height="16.458"/>
		
			<rect x="1597.055" y="1208.783" fill="#008888" stroke="#FFFFFF" stroke-width="4" stroke-miterlimit="10" width="245" height="16.458"/>
		
			<rect x="1549.881" y="839.746" fill="#008888" stroke="#FFFFFF" stroke-width="4" stroke-miterlimit="10" width="245" height="16.458"/>
		
			<rect x="915.502" y="659.728" fill="#008888" stroke="#FFFFFF" stroke-width="4" stroke-miterlimit="10" width="245" height="16.458"/>
		
			<rect x="1437.502" y="488.711" fill="#008888" stroke="#FFFFFF" stroke-width="4" stroke-miterlimit="10" width="245" height="16.458"/>
		
			<rect x="1869.42" y="746.792" fill="#008888" stroke="#FFFFFF" stroke-width="4" stroke-miterlimit="10" width="245" height="16.458"/>
		
			<rect x="1991.92" y="1129.319" fill="#008888" stroke="#FFFFFF" stroke-width="4" stroke-miterlimit="10" width="245" height="16.458"/>
		
			<rect x="514.596" y="952.214" fill="#008888" stroke="#FFFFFF" stroke-width="4" stroke-miterlimit="10" width="245" height="16.458"/>
		
			<rect x="358.081" y="446.707" fill="#008888" stroke="#FFFFFF" stroke-width="4" stroke-miterlimit="10" width="245" height="16.458"/>
		
			<rect x="788.645" y="143.676" fill="#008888" stroke="#FFFFFF" stroke-width="4" stroke-miterlimit="10" width="245" height="16.458"/>
		
			<rect x="1703.9" y="194.682" fill="#008888" stroke="#FFFFFF" stroke-width="4" stroke-miterlimit="10" width="245" height="16.458"/>
		
			<rect x="2613.756" y="453.648" fill="#008888" stroke="#FFFFFF" stroke-width="4" stroke-miterlimit="10" width="245" height="16.458"/>
		
			<rect x="2308.278" y="993.258" fill="#008888" stroke="#FFFFFF" stroke-width="4" stroke-miterlimit="10" width="245" height="16.458"/>
	</g>
	<rect x="2764.617" y="3152.5" fill="#8888ED" width="427" height="37.5"/>
	<polyline fill="#8B7765" points="191.161,3190 687.636,2840.028 687.636,3190 	"/>
	<polyline fill="#8B7765" points="893.281,3190.465 893.281,2841.824 1315.71,2492.092 1315.71,3190.465 	"/>
	<rect x="10" y="1464.5" fill="#8B7765" width="219.151" height="16"/>
	<rect x="408.2" y="1464.5" fill="#8B7765" width="2784.328" height="16"/>
	<polyline fill="#8B7765" points="229.151,1464.5 468.5,1680.5 468.5,1698.5 229.151,1480.5 	"/>
	
		<rect x="2268.274" y="609.681" fill="#008888" stroke="#FFFFFF" stroke-width="4" stroke-miterlimit="10" width="245" height="16.458"/>
	
		<rect x="2613.756" y="823.288" fill="#008888" stroke="#FFFFFF" stroke-width="4" stroke-miterlimit="10" width="245" height="16.458"/>
	
		<rect x="2243.253" y="178.224" fill="#008888" stroke="#FFFFFF" stroke-width="4" stroke-miterlimit="10" width="245" height="16.458"/>
	
		<rect x="773.928" y="993.258" fill="#008888" stroke="#FFFFFF" stroke-width="4" stroke-miterlimit="10" width="245" height="16.458"/>
	
		<rect x="1174.408" y="924.665" fill="#008888" stroke="#FFFFFF" stroke-width="4" stroke-miterlimit="10" width="245" height="16.458"/>
	
		<rect x="2033.865" y="1320.262" fill="#008888" stroke="#FFFFFF" stroke-width="4" stroke-miterlimit="10" width="245" height="16.458"/>
	
		<rect x="1192.502" y="1312.033" fill="#008888" stroke="#FFFFFF" stroke-width="4" stroke-miterlimit="10" width="245" height="16.458"/>
	
		<rect x="682.387" y="1282.767" fill="#008888" stroke="#FFFFFF" stroke-width="4" stroke-miterlimit="10" width="245" height="16.458"/>
</g>
<g id="Special">
	<circle id="Player" fill="#FF8877" cx="69.748" cy="3149.421" r="38.998"/>
	<rect id="Goal" x="2880.629" y="110.18" fill="#00FFFF" width="200" height="200"/>
</g>
<g id="Dynamic">
	
		<rect x="1537.141" y="2493.567" fill="#888800" stroke="#FFFFFF" stroke-width="4" stroke-miterlimit="10" width="245" height="16.458"/>
	
		<rect x="1973.704" y="2493.567" fill="#888800" stroke="#FFFFFF" stroke-width="4" stroke-miterlimit="10" width="245" height="16.458"/>
	
		<rect x="2420.074" y="2493.567" fill="#888800" stroke="#FFFFFF" stroke-width="4" stroke-miterlimit="10" width="245" height="16.458"/>
	
		<rect x="1535.378" y="1764.135" fill="#888800" stroke="#FFFFFF" stroke-width="4" stroke-miterlimit="10" width="245" height="16.458"/>
	
		<rect x="1971.941" y="1764.135" fill="#888800" stroke="#FFFFFF" stroke-width="4" stroke-miterlimit="10" width="245" height="16.458"/>
	
		<rect x="2418.312" y="1764.135" fill="#888800" stroke="#FFFFFF" stroke-width="4" stroke-miterlimit="10" width="245" height="16.458"/>
	<polyline fill="#8B0065" points="180.242,1438.5 180.242,1464.5 447.363,1464.5 447.363,1438.5 	"/>
	
		<rect x="616.805" y="1764.135" fill="#888800" stroke="#FFFFFF" stroke-width="4" stroke-miterlimit="10" width="245" height="16.458"/>
	
		<rect x="1063.176" y="1764.135" fill="#888800" stroke="#FFFFFF" stroke-width="4" stroke-miterlimit="10" width="245" height="16.458"/>
</g>
<g id="Joints">
	<circle fill="#CCCC00" stroke="#FFFFFF" stroke-miterlimit="10" cx="1659.641" cy="2501.796" r="10.704"/>
	<circle fill="#CCCC00" stroke="#FFFFFF" stroke-miterlimit="10" cx="2096.204" cy="2501.796" r="10.704"/>
	<circle fill="#CCCC00" stroke="#FFFFFF" stroke-miterlimit="10" cx="2542.574" cy="2501.796" r="10.704"/>
	<circle fill="#CCCC00" stroke="#FFFFFF" stroke-miterlimit="10" cx="1657.878" cy="1772.364" r="10.704"/>
	<circle fill="#CCCC00" stroke="#FFFFFF" stroke-miterlimit="10" cx="2094.441" cy="1772.364" r="10.704"/>
	<circle fill="#CCCC00" stroke="#FFFFFF" stroke-miterlimit="10" cx="2540.812" cy="1772.364" r="10.704"/>
	<circle fill="#CCCC00" stroke="#FFFFFF" stroke-miterlimit="10" cx="739.305" cy="1772.364" r="10.704"/>
	<circle fill="#CCCC00" stroke="#FFFFFF" stroke-miterlimit="10" cx="1185.676" cy="1772.364" r="10.704"/>
</g>
<g id="Lasers">
	
		<line fill="none" stroke="#FF0000" stroke-width="3" stroke-miterlimit="10" x1="1315.71" y1="3171.25" x2="2764.616" y2="3171.25"/>
	<line fill="none" stroke="#FF0000" stroke-width="3" stroke-miterlimit="10" x1="687.636" y1="3152.5" x2="920.124" y2="3152.5"/>
</g>
<g id="Background">
	<text transform="matrix(1 0 0 1 30.75 2967.4556)" font-family="'MyriadPro-Regular'" font-size="24">Climb</text>
</g>
</svg>
