<?xml version="1.0" encoding="utf-8"?>
<!-- Generator: Adobe Illustrator 17.0.2, SVG Export Plug-In . SVG Version: 6.00 Build 0)  -->
<!DOCTYPE svg PUBLIC "-//W3C//DTD SVG 1.1//EN" "http://www.w3.org/Graphics/SVG/1.1/DTD/svg11.dtd">
<svg version="1.1" id="Layer_1" xmlns="http://www.w3.org/2000/svg" xmlns:xlink="http://www.w3.org/1999/xlink" x="0px" y="0px"
	 width="4000px" height="4000px" viewBox="0 0 4000 4000" enable-background="new 0 0 4000 4000" xml:space="preserve">
<g id="Foreground">
</g>
<g id="Static">
	<g>
		
			<rect x="941.239" y="1544.411" fill="#008888" stroke="#FFFFFF" stroke-width="4" stroke-miterlimit="10" width="245" height="16.458"/>
		
			<rect x="1785.662" y="1854.811" fill="#008888" stroke="#FFFFFF" stroke-width="4" stroke-miterlimit="10" width="245" height="16.458"/>
		
			<rect x="1477.5" y="1262.468" fill="#008888" stroke="#FFFFFF" stroke-width="4" stroke-miterlimit="10" width="245" height="16.458"/>
		
			<rect x="915.502" y="659.728" fill="#008888" stroke="#FFFFFF" stroke-width="4" stroke-miterlimit="10" width="245" height="16.458"/>
		
			<rect x="1437.502" y="488.711" fill="#008888" stroke="#FFFFFF" stroke-width="4" stroke-miterlimit="10" width="245" height="16.458"/>
		
			<rect x="1869.42" y="746.792" fill="#008888" stroke="#FFFFFF" stroke-width="4" stroke-miterlimit="10" width="245" height="16.458"/>
		
			<rect x="1991.92" y="1129.319" fill="#008888" stroke="#FFFFFF" stroke-width="4" stroke-miterlimit="10" width="245" height="16.458"/>
		
			<rect x="66.002" y="839.746" fill="#008888" stroke="#FFFFFF" stroke-width="4" stroke-miterlimit="10" width="245" height="16.458"/>
		
			<rect x="358.081" y="446.707" fill="#008888" stroke="#FFFFFF" stroke-width="4" stroke-miterlimit="10" width="245" height="16.458"/>
		
			<rect x="788.645" y="143.676" fill="#008888" stroke="#FFFFFF" stroke-width="4" stroke-miterlimit="10" width="245" height="16.458"/>
		
			<rect x="1703.9" y="194.682" fill="#008888" stroke="#FFFFFF" stroke-width="4" stroke-miterlimit="10" width="245" height="16.458"/>
		
			<rect x="2880.774" y="314.657" fill="#008888" stroke="#FFFFFF" stroke-width="4" stroke-miterlimit="10" width="245" height="16.458"/>
		
			<rect x="2758.274" y="1417.273" fill="#008888" stroke="#FFFFFF" stroke-width="4" stroke-miterlimit="10" width="245" height="16.458"/>
	</g>
	<rect x="1323.796" y="3441.829" fill="#8B7765" width="717.411" height="16"/>
	<rect x="1299.796" y="2478.32" fill="#8B7765" width="16" height="978.271"/>
	<rect x="2049.208" y="2479.558" fill="#8B7765" width="16" height="978.271"/>
	
		<rect x="2268.274" y="609.681" fill="#008888" stroke="#FFFFFF" stroke-width="4" stroke-miterlimit="10" width="245" height="16.458"/>
	
		<rect x="2613.756" y="823.288" fill="#008888" stroke="#FFFFFF" stroke-width="4" stroke-miterlimit="10" width="245" height="16.458"/>
	
		<rect x="2243.253" y="178.224" fill="#008888" stroke="#FFFFFF" stroke-width="4" stroke-miterlimit="10" width="245" height="16.458"/>
	
		<rect x="773.928" y="993.258" fill="#008888" stroke="#FFFFFF" stroke-width="4" stroke-miterlimit="10" width="245" height="16.458"/>
	
		<rect x="-17.5" y="1464.5" fill="#008888" stroke="#FFFFFF" stroke-width="4" stroke-miterlimit="10" width="245" height="16.458"/>
	
		<rect x="2513.274" y="2070.768" fill="#008888" stroke="#FFFFFF" stroke-width="4" stroke-miterlimit="10" width="245" height="16.458"/>
	
		<rect x="1063.739" y="2114.298" fill="#008888" stroke="#FFFFFF" stroke-width="4" stroke-miterlimit="10" width="245" height="16.458"/>
	
		<rect x="358.081" y="1928.335" fill="#008888" stroke="#FFFFFF" stroke-width="4" stroke-miterlimit="10" width="245" height="16.458"/>
</g>
<g id="Special">
	<circle id="Player" fill="#FF8877" cx="105" cy="1425.502" r="38.998"/>
	<rect id="Goal" x="1582.502" y="3041.829" fill="#00FFFF" width="200" height="200"/>
</g>
<g id="Dynamic">
	
		<rect x="1327.134" y="2479.558" fill="#888800" stroke="#FFFFFF" stroke-width="4" stroke-miterlimit="10" width="335.366" height="16.458"/>
	
		<rect x="1677.5" y="2479.558" fill="#888800" stroke="#FFFFFF" stroke-width="4" stroke-miterlimit="10" width="356" height="16.458"/>
	<circle fill="#FFFF00" cx="2114.42" cy="1047.539" r="81.78"/>
	<circle fill="#FFFF00" cx="480.581" cy="1846.555" r="81.78"/>
	<circle fill="#FFFF00" cx="188.502" cy="763.25" r="81.78"/>
	<circle fill="#FFFF00" cx="1063.739" cy="1464.5" r="81.78"/>
	<circle fill="#FFFF00" cx="2635.774" cy="1988.988" r="81.78"/>
	<circle fill="#FFFF00" cx="2390.774" cy="528.487" r="81.78"/>
	<circle fill="#FFFF00" cx="480.581" cy="364.927" r="81.78"/>
	<circle fill="#FFFF00" cx="1038.002" cy="578.72" r="81.78"/>
	<circle fill="#FFFF00" cx="1991.92" cy="667.957" r="81.78"/>
	<circle fill="#FFFF00" cx="2894.157" cy="1335.493" r="81.78"/>
	<circle fill="#FFFF00" cx="2736.256" cy="746.792" r="81.78"/>
	<circle fill="#FFFF00" cx="911.145" cy="61.896" r="81.78"/>
	<circle fill="#FFFF00" cx="1828.36" cy="112.902" r="81.78"/>
	<circle fill="#FFFF00" cx="2365.753" cy="96.444" r="81.78"/>
	<circle fill="#FFFF00" cx="3003.274" cy="241.914" r="81.78"/>
	
		<rect x="1327.134" y="2517.329" fill="#888800" stroke="#FFFFFF" stroke-width="4" stroke-miterlimit="10" width="335.366" height="16.458"/>
	
		<rect x="1677.5" y="2517.329" fill="#888800" stroke="#FFFFFF" stroke-width="4" stroke-miterlimit="10" width="356" height="16.458"/>
</g>
<g id="Joints">
	<circle fill="#FFFF00" stroke="#FFFFFF" stroke-miterlimit="10" cx="1337.838" cy="2487.787" r="10.704"/>
	<circle fill="#FFFE00" stroke="#FFFFFF" stroke-miterlimit="10" cx="2022.796" cy="2487.787" r="10.704"/>
	<circle fill="#FFFF00" stroke="#FFFFFF" stroke-miterlimit="10" cx="1337.838" cy="2525.558" r="10.704"/>
	<circle fill="#FFFE00" stroke="#FFFFFF" stroke-miterlimit="10" cx="2022.796" cy="2525.558" r="10.704"/>
</g>
<g id="Lasers">
</g>
<g id="Background">
	<text transform="matrix(1 0 0 1 30.75 2967.4556)" font-family="'MyriadPro-Regular'" font-size="24">Climb</text>
</g>
</svg>
