<?xml version="1.0" encoding="utf-8"?>
<!-- Generator: Adobe Illustrator 17.0.1, SVG Export Plug-In . SVG Version: 6.00 Build 0)  -->
<!DOCTYPE svg PUBLIC "-//W3C//DTD SVG 1.0//EN" "http://www.w3.org/TR/2001/REC-SVG-20010904/DTD/svg10.dtd">
<svg version="1.0" id="Layer_1" xmlns="http://www.w3.org/2000/svg" xmlns:xlink="http://www.w3.org/1999/xlink" x="0px" y="0px"
	 width="1600px" height="900px" viewBox="0 0 1600 900" enable-background="new 0 0 1600 900" xml:space="preserve">
<g id="Foreground">
</g>
<g id="Background">
	<circle fill="#0000FF" cx="522.418" cy="333.383" r="10.704"/>
	<circle fill="#0000FF" cx="524.092" cy="240.119" r="38.998"/>
	<rect x="580.479" y="201.121" fill="#00FFFF" width="219.521" height="77.996"/>
	<text transform="matrix(1 0 0 1 510.5 170.5)" font-family="'MyriadPro-Regular'" font-size="12">Special</text>
	<text transform="matrix(1 0 0 1 510.5 308.5)"><tspan x="0" y="0" font-family="'MyriadPro-Regular'" font-size="12">Joi</tspan><tspan x="13.836" y="0" font-family="'MyriadPro-Regular'" font-size="12">n</tspan><tspan x="20.448" y="0" font-family="'MyriadPro-Regular'" font-size="12">ts</tspan></text>
	<text transform="matrix(1 0 0 1 505.5 430.5)"><tspan x="0" y="0" font-family="'MyriadPro-Regular'" font-size="12">S</tspan><tspan x="5.88" y="0" font-family="'MyriadPro-Regular'" font-size="12">t</tspan><tspan x="9.852" y="0" font-family="'MyriadPro-Regular'" font-size="12">a</tspan><tspan x="15.588" y="0" font-family="'MyriadPro-Regular'" font-size="12">tic</tspan></text>
	<text transform="matrix(1 0 0 1 492.5 550.5)"><tspan x="0" y="0" font-family="'MyriadPro-Regular'" font-size="12">D</tspan><tspan x="8.16" y="0" font-family="'MyriadPro-Regular'" font-size="12">ynamic</tspan></text>
	<text transform="matrix(1 0 0 1 510.5 245.5)"><tspan x="0" y="0" font-family="'MyriadPro-Regular'" font-size="12">P</tspan><tspan x="6.324" y="0" font-family="'MyriadPro-Regular'" font-size="12">l</tspan><tspan x="9.156" y="0" font-family="'MyriadPro-Regular'" font-size="12">a</tspan><tspan x="14.844" y="0" font-family="'MyriadPro-Regular'" font-size="12">y</tspan><tspan x="20.376" y="0" font-family="'MyriadPro-Regular'" font-size="12">er</tspan></text>
	<text transform="matrix(1 0 0 1 674.5 245.5)"><tspan x="0" y="0" font-family="'MyriadPro-Regular'" font-size="12">G</tspan><tspan x="7.812" y="0" font-family="'MyriadPro-Regular'" font-size="12">oal</tspan></text>
	<text transform="matrix(1 0 0 1 546.479 333.383)"><tspan x="0" y="0" font-family="'MyriadPro-Regular'" font-size="12">P</tspan><tspan x="6.072" y="0" font-family="'MyriadPro-Regular'" font-size="12">a</tspan><tspan x="11.856" y="0" font-family="'MyriadPro-Regular'" font-size="12">r</tspan><tspan x="16.068" y="0" font-family="'MyriadPro-Regular'" font-size="12">t</tspan><tspan x="19.98" y="0" font-family="'MyriadPro-Regular'" font-size="12">-</tspan><tspan x="23.664" y="0" font-family="'MyriadPro-Regular'" font-size="12">P</tspan><tspan x="29.736" y="0" font-family="'MyriadPro-Regular'" font-size="12">a</tspan><tspan x="35.52" y="0" font-family="'MyriadPro-Regular'" font-size="12">r</tspan><tspan x="39.731" y="0" font-family="'MyriadPro-Regular'" font-size="12">t</tspan></text>
	
		<rect x="511.714" y="405.614" transform="matrix(0.2726 -0.9621 0.9621 0.2726 -92.5622 859.877)" fill="#008800" width="21.409" height="171.086"/>
	
		<rect x="511.714" y="518.544" transform="matrix(0.2726 -0.9621 0.9621 0.2726 -201.2145 942.0184)" fill="#008800" width="21.409" height="171.086"/>
	<line fill="none" stroke="#231F20" stroke-miterlimit="10" x1="636.5" y1="441.5" x2="636.5" y2="637.708"/>
	<text transform="matrix(1 0 0 1 649.5 333.383)"><tspan x="0" y="0" font-family="'MyriadPro-Regular'" font-size="12">P</tspan><tspan x="6.324" y="0" font-family="'MyriadPro-Regular'" font-size="12">h</tspan><tspan x="12.828" y="0" font-family="'MyriadPro-Regular'" font-size="12">y</tspan><tspan x="18.408" y="0" font-family="'MyriadPro-Regular'" font-size="12">sical p</tspan><tspan x="49.332" y="0" font-family="'MyriadPro-Regular'" font-size="12">r</tspan><tspan x="53.136" y="0" font-family="'MyriadPro-Regular'" font-size="12">ope</tspan><tspan x="72.563" y="0" font-family="'MyriadPro-Regular'" font-size="12">r</tspan><tspan x="76.775" y="0" font-family="'MyriadPro-Regular'" font-size="12">ties de</tspan><tspan x="109.643" y="0" font-family="'MyriadPro-Regular'" font-size="12">t</tspan><tspan x="113.542" y="0" font-family="'MyriadPro-Regular'" font-size="12">e</tspan><tspan x="119.554" y="0" font-family="'MyriadPro-Regular'" font-size="12">r</tspan><tspan x="123.526" y="0" font-family="'MyriadPro-Regular'" font-size="12">mined </tspan><tspan x="158.326" y="0" font-family="'MyriadPro-Regular'" font-size="12">b</tspan><tspan x="165.069" y="0" font-family="'MyriadPro-Regular'" font-size="12">y </tspan><tspan x="173.266" y="0" font-family="'MyriadPro-Regular'" font-size="12">R</tspan><tspan x="179.758" y="0" font-family="'MyriadPro-Regular'" font-size="12">GB:</tspan><tspan x="0" y="28.8" font-family="'MyriadPro-Regular'" font-size="12">R: </tspan><tspan x="11.483" y="28.8" font-family="'MyriadPro-Regular'" font-size="12">A</tspan><tspan x="18.792" y="28.8" font-family="'MyriadPro-Regular'" font-size="12">ngular </tspan><tspan x="53.855" y="28.8" font-family="'MyriadPro-Regular'" font-size="12">F</tspan><tspan x="59.387" y="28.8" font-family="'MyriadPro-Regular'" font-size="12">r</tspan><tspan x="63.359" y="28.8" font-family="'MyriadPro-Regular'" font-size="12">i</tspan><tspan x="66.167" y="28.8" font-family="'MyriadPro-Regular'" font-size="12">c</tspan><tspan x="71.699" y="28.8" font-family="'MyriadPro-Regular'" font-size="12">tion 0 -&gt; la</tspan><tspan x="124.966" y="28.8" font-family="'MyriadPro-Regular'" font-size="12">r</tspan><tspan x="128.794" y="28.8" font-family="'MyriadPro-Regular'" font-size="12">ge number</tspan><tspan x="0" y="43.2" font-family="'MyriadPro-Regular'" font-size="12">G: </tspan><tspan x="12.78" y="43.2" font-family="'MyriadPro-Regular'" font-size="12">A</tspan><tspan x="20.088" y="43.2" font-family="'MyriadPro-Regular'" font-size="12">ngular Sp</tspan><tspan x="67.895" y="43.2" font-family="'MyriadPro-Regular'" font-size="12">r</tspan><tspan x="71.867" y="43.2" font-family="'MyriadPro-Regular'" font-size="12">ing </tspan><tspan x="90.586" y="43.2" font-family="'MyriadPro-Regular'" font-size="12">C</tspan><tspan x="97.415" y="43.2" font-family="'MyriadPro-Regular'" font-size="12">onsta</tspan><tspan x="125.17" y="43.2" font-family="'MyriadPro-Regular'" font-size="12">n</tspan><tspan x="131.782" y="43.2" font-family="'MyriadPro-Regular'" font-size="12">t 0 -&gt; la</tspan><tspan x="168.993" y="43.2" font-family="'MyriadPro-Regular'" font-size="12">r</tspan><tspan x="172.821" y="43.2" font-family="'MyriadPro-Regular'" font-size="12">ge number</tspan><tspan x="0" y="57.6" font-family="'MyriadPro-Regular'" font-size="12">B: </tspan><tspan x="11.532" y="57.6" font-family="'MyriadPro-Regular'" font-size="12">A</tspan><tspan x="18.84" y="57.6" font-family="'MyriadPro-Regular'" font-size="12">ngular Speed   -2pi/s -&gt; 2pi/s </tspan></text>
	
		<text id="Physical_properties_determined_by_RGB:__R:_Elasticity_G:_Density_B:_Friction" transform="matrix(1 0 0 1 649.5 452.5)"><tspan x="0" y="0" font-family="'MyriadPro-Regular'" font-size="12">P</tspan><tspan x="6.324" y="0" font-family="'MyriadPro-Regular'" font-size="12">h</tspan><tspan x="12.828" y="0" font-family="'MyriadPro-Regular'" font-size="12">y</tspan><tspan x="18.408" y="0" font-family="'MyriadPro-Regular'" font-size="12">sical p</tspan><tspan x="49.332" y="0" font-family="'MyriadPro-Regular'" font-size="12">r</tspan><tspan x="53.136" y="0" font-family="'MyriadPro-Regular'" font-size="12">ope</tspan><tspan x="72.563" y="0" font-family="'MyriadPro-Regular'" font-size="12">r</tspan><tspan x="76.775" y="0" font-family="'MyriadPro-Regular'" font-size="12">ties de</tspan><tspan x="109.643" y="0" font-family="'MyriadPro-Regular'" font-size="12">t</tspan><tspan x="113.542" y="0" font-family="'MyriadPro-Regular'" font-size="12">e</tspan><tspan x="119.554" y="0" font-family="'MyriadPro-Regular'" font-size="12">r</tspan><tspan x="123.526" y="0" font-family="'MyriadPro-Regular'" font-size="12">mined </tspan><tspan x="158.326" y="0" font-family="'MyriadPro-Regular'" font-size="12">b</tspan><tspan x="165.069" y="0" font-family="'MyriadPro-Regular'" font-size="12">y </tspan><tspan x="173.266" y="0" font-family="'MyriadPro-Regular'" font-size="12">R</tspan><tspan x="179.758" y="0" font-family="'MyriadPro-Regular'" font-size="12">GB:</tspan><tspan x="0" y="28.8" font-family="'MyriadPro-Regular'" font-size="12">R: Elastici</tspan><tspan x="45.719" y="28.8" font-family="'MyriadPro-Regular'" font-size="12">t</tspan><tspan x="49.799" y="28.8" font-family="'MyriadPro-Regular'" font-size="12">y 0 -&gt; 0.5 -&gt; 4</tspan><tspan x="0" y="43.2" font-family="'MyriadPro-Regular'" font-size="12">G: </tspan><tspan x="12.78" y="43.2" font-family="'MyriadPro-Regular'" font-size="12">D</tspan><tspan x="20.819" y="43.2" font-family="'MyriadPro-Regular'" font-size="12">ensi</tspan><tspan x="41.051" y="43.2" font-family="'MyriadPro-Regular'" font-size="12">t</tspan><tspan x="45.131" y="43.2" font-family="'MyriadPro-Regular'" font-size="12">y  0 -&gt; 0.5 -&gt; 4</tspan><tspan x="0" y="57.6" font-family="'MyriadPro-Regular'" font-size="12">B: </tspan><tspan x="11.532" y="57.6" font-family="'MyriadPro-Regular'" font-size="12">F</tspan><tspan x="17.064" y="57.6" font-family="'MyriadPro-Regular'" font-size="12">r</tspan><tspan x="21.036" y="57.6" font-family="'MyriadPro-Regular'" font-size="12">i</tspan><tspan x="23.844" y="57.6" font-family="'MyriadPro-Regular'" font-size="12">c</tspan><tspan x="29.375" y="57.6" font-family="'MyriadPro-Regular'" font-size="12">tion  0 -&gt; 0.5 -&gt; 4</tspan></text>
	<line fill="none" stroke="#231F20" stroke-miterlimit="10" x1="636.5" y1="322.679" x2="636.5" y2="400.908"/>
</g>
<g id="Static">
	<polyline fill="#888888" points="1333.564,901 1200,870 30,870 30,355 30,30 1570,31.192 1570,870 1200,870 1333.564,901 1600,901 
		1600,1 0,0.5 0,901 0,901 	"/>
	<rect x="681.5" y="644.5" fill="#E08888" width="427" height="32"/>
</g>
<g id="Special">
	<circle id="Player" fill="#7788FF" cx="100.706" cy="430.5" r="38.998"/>
	<rect id="Goal" x="1256.479" y="644.5" fill="#00FFFF" width="200" height="200"/>
</g>
<g id="Dynamic">
	<circle fill="#888888" cx="898.639" cy="832.495" r="38.998"/>
	<rect x="751.693" y="685.081" fill="#888888" width="21.409" height="171.087"/>
	<rect x="1034.969" y="685.081" fill="#888888" width="21.409" height="171.087"/>
	
		<rect x="274.973" y="671.955" transform="matrix(0.731 -0.6824 0.6824 0.731 -440.0595 398.7195)" fill="#888888" width="21.409" height="171.09"/>
	
		<rect x="82.555" y="447.543" transform="matrix(-0.8098 0.5867 -0.5867 -0.8098 481.5652 910.0455)" fill="#888888" width="21.409" height="171.087"/>
	
		<rect x="174.701" y="562.256" transform="matrix(0.7511 -0.6602 0.6602 0.7511 -381.5265 283.649)" fill="#888888" width="21.408" height="171.08"/>
	
		<rect x="397.933" y="746.953" transform="matrix(0.2726 -0.9621 0.9621 0.2726 -503.7304 998.684)" fill="#888888" width="21.409" height="171.086"/>
	<polygon fill="#008800" points="77.3,364.445 83.455,322.9 52.72,294.276 94.135,287.292 111.86,249.216 131.3,286.445 
		172.989,291.537 143.59,321.53 151.63,362.752 114.02,344.06 	"/>
	<polygon fill="#008800" points="226.937,373.052 202.693,338.757 160.697,339.286 185.822,305.631 172.341,265.854 
		212.113,279.349 245.777,254.236 245.233,296.232 279.52,320.488 239.411,332.948 	"/>
	
		<rect x="1163" y="491.157" fill="#888800" stroke="#FFFFFF" stroke-width="4" stroke-miterlimit="10" width="245" height="16.458"/>
	
		<rect x="1163" y="325.154" fill="#888800" stroke="#FFFFFF" stroke-width="4" stroke-miterlimit="10" width="245" height="16.458"/>
	
		<rect x="1163" y="147.154" fill="#888800" stroke="#FFFFFF" stroke-width="4" stroke-miterlimit="10" width="245" height="16.458"/>
	<rect x="886" y="325.154" fill="#888800" stroke="#FFFFFF" stroke-width="4" stroke-miterlimit="10" width="245" height="16.458"/>
	<rect x="886" y="491.157" fill="#888800" stroke="#FFFFFF" stroke-width="4" stroke-miterlimit="10" width="245" height="16.458"/>
	<rect x="886" y="147.154" fill="#888800" stroke="#FFFFFF" stroke-width="4" stroke-miterlimit="10" width="245" height="16.458"/>
</g>
<g id="Joints">
	<circle stroke="#FFFFFF" stroke-width="4" stroke-miterlimit="10" cx="762.397" cy="697.174" r="10.704"/>
	<circle stroke="#FFFFFF" stroke-width="4" stroke-miterlimit="10" cx="1045.673" cy="697.174" r="10.704"/>
	<circle cx="138.826" cy="593.383" r="10.704"/>
	<circle cx="234.182" cy="701.47" r="10.704"/>
	<circle cx="336.641" cy="810.07" r="10.704"/>
	<circle stroke="#FFFFFF" stroke-width="4" stroke-miterlimit="10" cx="51.424" cy="472.704" r="10.704"/>
	<circle stroke="#FFFFFF" stroke-width="4" stroke-miterlimit="10" cx="479.233" cy="852.464" r="10.704"/>
	<circle fill="#000044" stroke="#FFFFFF" stroke-width="4" stroke-miterlimit="10" cx="111.41" cy="310.331" r="10.704"/>
	<circle fill="#0000BB" stroke="#FFFFFF" stroke-width="4" stroke-miterlimit="10" cx="217.109" cy="310.331" r="10.704"/>
	<circle fill="#000088" stroke="#FFFFFF" stroke-width="4" stroke-miterlimit="10" cx="1285.5" cy="500.411" r="10.704"/>
	<circle fill="#008800" stroke="#FFFFFF" stroke-width="4" stroke-miterlimit="10" cx="1285.5" cy="333.383" r="10.704"/>
	<circle fill="#880000" stroke="#FFFFFF" stroke-width="4" stroke-miterlimit="10" cx="1285.5" cy="155.383" r="10.704"/>
	<circle fill="#FF0000" stroke="#FFFFFF" stroke-width="4" stroke-miterlimit="10" cx="1008.5" cy="155.383" r="10.704"/>
	<circle fill="#00FF00" stroke="#FFFFFF" stroke-width="4" stroke-miterlimit="10" cx="1008.5" cy="333.383" r="10.704"/>
	<circle fill="#0000FF" stroke="#FFFFFF" stroke-width="4" stroke-miterlimit="10" cx="1008.5" cy="499.386" r="10.704"/>
</g>
</svg>
