<?xml version="1.0" encoding="utf-8"?>
<!-- Generator: Adobe Illustrator 17.0.1, SVG Export Plug-In . SVG Version: 6.00 Build 0)  -->
<!DOCTYPE svg PUBLIC "-//W3C//DTD SVG 1.1//EN" "http://www.w3.org/Graphics/SVG/1.1/DTD/svg11.dtd">
<svg version="1.1" id="Layer_1" xmlns="http://www.w3.org/2000/svg" xmlns:xlink="http://www.w3.org/1999/xlink" x="0px" y="0px"
	 width="1600px" height="900px" viewBox="0 0 1600 900" enable-background="new 0 0 1600 900" xml:space="preserve">
<g id="Foreground">
</g>
<g id="Background">
	<circle fill="#00FF00" cx="521.088" cy="362.183" r="10.704"/>
	<circle fill="#0000FF" cx="524.092" cy="240.119" r="38.998"/>
	<rect x="580.479" y="201.121" fill="#00FFFF" width="219.521" height="77.996"/>
	<text transform="matrix(1 0 0 1 510.5 170.5)" font-family="'MyriadPro-Regular'" font-size="12">Special</text>
	<text transform="matrix(1 0 0 1 510.5 308.5)" font-family="'MyriadPro-Regular'" font-size="12">Joi</text>
	<text transform="matrix(1 0 0 1 524.336 308.5)" font-family="'MyriadPro-Regular'" font-size="12">n</text>
	<text transform="matrix(1 0 0 1 530.948 308.5)" font-family="'MyriadPro-Regular'" font-size="12">ts</text>
	<text transform="matrix(1 0 0 1 510.5 245.5)" font-family="'MyriadPro-Regular'" font-size="12">P</text>
	<text transform="matrix(1 0 0 1 516.824 245.5)" font-family="'MyriadPro-Regular'" font-size="12">l</text>
	<text transform="matrix(1 0 0 1 519.656 245.5)" font-family="'MyriadPro-Regular'" font-size="12">a</text>
	<text transform="matrix(1 0 0 1 525.344 245.5)" font-family="'MyriadPro-Regular'" font-size="12">y</text>
	<text transform="matrix(1 0 0 1 530.876 245.5)" font-family="'MyriadPro-Regular'" font-size="12">er</text>
	<text transform="matrix(1 0 0 1 674.5 245.5)" font-family="'MyriadPro-Regular'" font-size="12">G</text>
	<text transform="matrix(1 0 0 1 682.312 245.5)" font-family="'MyriadPro-Regular'" font-size="12">oal</text>
	
		<rect x="511.687" y="405.607" transform="matrix(-0.2726 0.9621 -0.9621 -0.2726 1137.3445 122.4321)" fill="#FF0000" width="21.408" height="171.081"/>
	
		<rect x="511.685" y="518.533" transform="matrix(-0.2726 0.9621 -0.9621 -0.2726 1245.9905 266.1448)" fill="#0000FF" width="21.408" height="171.081"/>
	<line fill="none" stroke="#231F20" stroke-miterlimit="10" x1="636.5" y1="441.5" x2="636.5" y2="637.708"/>
	<text transform="matrix(1 0 0 1 649.5 333.383)" font-family="'MyriadPro-Regular'" font-size="12">P</text>
	<text transform="matrix(1 0 0 1 655.824 333.383)" font-family="'MyriadPro-Regular'" font-size="12">h</text>
	<text transform="matrix(1 0 0 1 662.328 333.383)" font-family="'MyriadPro-Regular'" font-size="12">y</text>
	<text transform="matrix(1 0 0 1 667.908 333.383)" font-family="'MyriadPro-Regular'" font-size="12">sical p</text>
	<text transform="matrix(1 0 0 1 698.832 333.383)" font-family="'MyriadPro-Regular'" font-size="12">r</text>
	<text transform="matrix(1 0 0 1 702.636 333.383)" font-family="'MyriadPro-Regular'" font-size="12">ope</text>
	<text transform="matrix(1 0 0 1 722.063 333.383)" font-family="'MyriadPro-Regular'" font-size="12">r</text>
	<text transform="matrix(1 0 0 1 726.275 333.383)" font-family="'MyriadPro-Regular'" font-size="12">ties de</text>
	<text transform="matrix(1 0 0 1 759.143 333.383)" font-family="'MyriadPro-Regular'" font-size="12">t</text>
	<text transform="matrix(1 0 0 1 763.042 333.383)" font-family="'MyriadPro-Regular'" font-size="12">e</text>
	<text transform="matrix(1 0 0 1 769.054 333.383)" font-family="'MyriadPro-Regular'" font-size="12">r</text>
	<text transform="matrix(1 0 0 1 773.026 333.383)" font-family="'MyriadPro-Regular'" font-size="12">mined </text>
	<text transform="matrix(1 0 0 1 807.826 333.383)" font-family="'MyriadPro-Regular'" font-size="12">b</text>
	<text transform="matrix(1 0 0 1 814.569 333.383)" font-family="'MyriadPro-Regular'" font-size="12">y </text>
	<text transform="matrix(1 0 0 1 822.766 333.383)" font-family="'MyriadPro-Regular'" font-size="12">R</text>
	<text transform="matrix(1 0 0 1 829.258 333.383)" font-family="'MyriadPro-Regular'" font-size="12">GB:</text>
	<text transform="matrix(1 0 0 1 649.5 362.183)" font-family="'MyriadPro-Regular'" font-size="12">R: </text>
	<text transform="matrix(1 0 0 1 660.983 362.183)" font-family="'MyriadPro-Regular'" font-size="12">A</text>
	<text transform="matrix(1 0 0 1 668.292 362.183)" font-family="'MyriadPro-Regular'" font-size="12">ngular </text>
	<text transform="matrix(1 0 0 1 703.355 362.183)" font-family="'MyriadPro-Regular'" font-size="12">F</text>
	<text transform="matrix(1 0 0 1 708.887 362.183)" font-family="'MyriadPro-Regular'" font-size="12">r</text>
	<text transform="matrix(1 0 0 1 712.859 362.183)" font-family="'MyriadPro-Regular'" font-size="12">i</text>
	<text transform="matrix(1 0 0 1 715.667 362.183)" font-family="'MyriadPro-Regular'" font-size="12">c</text>
	<text transform="matrix(1 0 0 1 721.199 362.183)" font-family="'MyriadPro-Regular'" font-size="12">tion 0 -&gt; la</text>
	<text transform="matrix(1 0 0 1 774.466 362.183)" font-family="'MyriadPro-Regular'" font-size="12">r</text>
	<text transform="matrix(1 0 0 1 778.294 362.183)" font-family="'MyriadPro-Regular'" font-size="12">ge number</text>
	<text transform="matrix(1 0 0 1 649.5 376.583)" font-family="'MyriadPro-Regular'" font-size="12">G: </text>
	<text transform="matrix(1 0 0 1 662.28 376.583)" font-family="'MyriadPro-Regular'" font-size="12">A</text>
	<text transform="matrix(1 0 0 1 669.588 376.583)" font-family="'MyriadPro-Regular'" font-size="12">ngular Sp</text>
	<text transform="matrix(1 0 0 1 717.395 376.583)" font-family="'MyriadPro-Regular'" font-size="12">r</text>
	<text transform="matrix(1 0 0 1 721.367 376.583)" font-family="'MyriadPro-Regular'" font-size="12">ing </text>
	<text transform="matrix(1 0 0 1 740.086 376.583)" font-family="'MyriadPro-Regular'" font-size="12">C</text>
	<text transform="matrix(1 0 0 1 746.915 376.583)" font-family="'MyriadPro-Regular'" font-size="12">onsta</text>
	<text transform="matrix(1 0 0 1 774.67 376.583)" font-family="'MyriadPro-Regular'" font-size="12">n</text>
	<text transform="matrix(1 0 0 1 781.282 376.583)" font-family="'MyriadPro-Regular'" font-size="12">t 0 -&gt; la</text>
	<text transform="matrix(1 0 0 1 818.493 376.583)" font-family="'MyriadPro-Regular'" font-size="12">r</text>
	<text transform="matrix(1 0 0 1 822.321 376.583)" font-family="'MyriadPro-Regular'" font-size="12">ge number</text>
	<text transform="matrix(1 0 0 1 649.5 390.983)" font-family="'MyriadPro-Regular'" font-size="12">B: </text>
	<text transform="matrix(1 0 0 1 661.032 390.983)" font-family="'MyriadPro-Regular'" font-size="12">A</text>
	<text transform="matrix(1 0 0 1 668.34 390.983)" font-family="'MyriadPro-Regular'" font-size="12">ngular Speed   -2pi/s -&gt; 2pi/s </text>
	<text transform="matrix(1 0 0 1 649.5 452.5)" font-family="'MyriadPro-Regular'" font-size="12">P</text>
	<text transform="matrix(1 0 0 1 655.824 452.5)" font-family="'MyriadPro-Regular'" font-size="12">h</text>
	<text transform="matrix(1 0 0 1 662.328 452.5)" font-family="'MyriadPro-Regular'" font-size="12">y</text>
	<text transform="matrix(1 0 0 1 667.908 452.5)" font-family="'MyriadPro-Regular'" font-size="12">sical p</text>
	<text transform="matrix(1 0 0 1 698.832 452.5)" font-family="'MyriadPro-Regular'" font-size="12">r</text>
	<text transform="matrix(1 0 0 1 702.636 452.5)" font-family="'MyriadPro-Regular'" font-size="12">ope</text>
	<text transform="matrix(1 0 0 1 722.063 452.5)" font-family="'MyriadPro-Regular'" font-size="12">r</text>
	<text transform="matrix(1 0 0 1 726.275 452.5)" font-family="'MyriadPro-Regular'" font-size="12">ties de</text>
	<text transform="matrix(1 0 0 1 759.143 452.5)" font-family="'MyriadPro-Regular'" font-size="12">t</text>
	<text transform="matrix(1 0 0 1 763.042 452.5)" font-family="'MyriadPro-Regular'" font-size="12">e</text>
	<text transform="matrix(1 0 0 1 769.054 452.5)" font-family="'MyriadPro-Regular'" font-size="12">r</text>
	<text transform="matrix(1 0 0 1 773.026 452.5)" font-family="'MyriadPro-Regular'" font-size="12">mined </text>
	<text transform="matrix(1 0 0 1 807.826 452.5)" font-family="'MyriadPro-Regular'" font-size="12">b</text>
	<text transform="matrix(1 0 0 1 814.569 452.5)" font-family="'MyriadPro-Regular'" font-size="12">y </text>
	<text transform="matrix(1 0 0 1 822.766 452.5)" font-family="'MyriadPro-Regular'" font-size="12">R</text>
	<text transform="matrix(1 0 0 1 829.258 452.5)" font-family="'MyriadPro-Regular'" font-size="12">GB:</text>
	<text transform="matrix(1 0 0 1 649.5 481.3)" font-family="'MyriadPro-Regular'" font-size="12">R: Elastici</text>
	<text transform="matrix(1 0 0 1 695.219 481.3)" font-family="'MyriadPro-Regular'" font-size="12">t</text>
	<text transform="matrix(1 0 0 1 699.299 481.3)" font-family="'MyriadPro-Regular'" font-size="12">y 0 -&gt; 0.5 -&gt; 4</text>
	<text transform="matrix(1 0 0 1 649.5 495.7)" font-family="'MyriadPro-Regular'" font-size="12">G: </text>
	<text transform="matrix(1 0 0 1 662.28 495.7)" font-family="'MyriadPro-Regular'" font-size="12">D</text>
	<text transform="matrix(1 0 0 1 670.319 495.7)" font-family="'MyriadPro-Regular'" font-size="12">ensi</text>
	<text transform="matrix(1 0 0 1 690.551 495.7)" font-family="'MyriadPro-Regular'" font-size="12">t</text>
	<text transform="matrix(1 0 0 1 694.631 495.7)" font-family="'MyriadPro-Regular'" font-size="12">y  0 -&gt; 0.5 -&gt; 4</text>
	<text transform="matrix(1 0 0 1 649.5 510.1)" font-family="'MyriadPro-Regular'" font-size="12">B: </text>
	<text transform="matrix(1 0 0 1 661.032 510.1)" font-family="'MyriadPro-Regular'" font-size="12">F</text>
	<text transform="matrix(1 0 0 1 666.564 510.1)" font-family="'MyriadPro-Regular'" font-size="12">r</text>
	<text transform="matrix(1 0 0 1 670.536 510.1)" font-family="'MyriadPro-Regular'" font-size="12">i</text>
	<text transform="matrix(1 0 0 1 673.344 510.1)" font-family="'MyriadPro-Regular'" font-size="12">c</text>
	<text transform="matrix(1 0 0 1 678.875 510.1)" font-family="'MyriadPro-Regular'" font-size="12">tion  0 -&gt; 0.5 -&gt; 4</text>
	<line fill="none" stroke="#231F20" stroke-miterlimit="10" x1="636.5" y1="322.679" x2="636.5" y2="400.908"/>
	<circle fill="#0000FF" cx="521.088" cy="390.983" r="10.704"/>
	<circle fill="#FF0000" cx="521.436" cy="334.266" r="10.704"/>
	<text transform="matrix(1 0 0 1 545.8335 334.2655)" font-family="'MyriadPro-Regular'" font-size="12">Frictiony</text>
	<text transform="matrix(1 0 0 1 545.8335 365.1667)" font-family="'MyriadPro-Regular'" font-size="12">Springy</text>
	<text transform="matrix(1 0 0 1 545.8335 397.1667)" font-family="'MyriadPro-Regular'" font-size="12">Spinny</text>
	<text transform="matrix(1 0 0 1 506.5 432.5)" font-family="'MyriadPro-Regular'" font-size="12">Shapes</text>
	<text transform="matrix(1 0 0 1 570.5005 604.0733)" font-family="'MyriadPro-Regular'" font-size="12">Bouncy</text>
	
		<rect x="510.384" y="464.959" transform="matrix(-0.2726 0.9621 -0.9621 -0.2726 1192.7904 199.2183)" fill="#00FF00" width="21.408" height="171.081"/>
	<text transform="matrix(1 0 0 1 570.5002 550.4998)" font-family="'MyriadPro-Regular'" font-size="12">Dense</text>
	<text transform="matrix(1 0 0 1 570.5004 489.7067)" font-family="'MyriadPro-Regular'" font-size="12">Rough</text>
</g>
<g id="Static">
	<polyline fill="#8B7765" points="1333.564,901 1200,870 30,870 30,355 30,30 1570,31.192 1570,870 1200,870 1333.564,901 1600,901 
		1600,1 0,0.5 0,901 0,901 	"/>
	<rect x="681.5" y="644.5" fill="#8888E0" width="427" height="32"/>
</g>
<g id="Special">
	<circle id="Player" fill="#FF8877" cx="100.706" cy="430.5" r="38.998"/>
	<rect id="Goal" x="1256.479" y="644.5" fill="#00FFFF" width="200" height="200"/>
</g>
<g id="Dynamic">
	<circle fill="#8B7765" cx="898.639" cy="832.495" r="38.998"/>
	<rect x="751.693" y="685.081" fill="#008888" width="21.409" height="171.087"/>
	<rect x="1034.969" y="685.081" fill="#008888" width="21.409" height="171.087"/>
	
		<rect x="274.984" y="671.959" transform="matrix(-0.731 0.6824 -0.6824 -0.731 1011.438 1116.2828)" fill="#8B7765" width="21.409" height="171.093"/>
	
		<rect x="82.577" y="447.524" transform="matrix(0.8098 -0.5867 0.5867 0.8098 -295.0098 156.1165)" fill="#8B7765" width="21.409" height="171.086"/>
	
		<rect x="174.702" y="562.263" transform="matrix(-0.7511 0.6602 -0.6602 -0.7511 752.3406 1011.962)" fill="#8B7765" width="21.408" height="171.081"/>
	
		<rect x="397.904" y="746.932" transform="matrix(-0.2726 0.9621 -0.9621 -0.2726 1320.941 666.2775)" fill="#8B7765" width="21.408" height="171.081"/>
	<polygon fill="#008800" points="77.3,364.445 83.455,322.9 52.72,294.276 94.135,287.292 111.86,249.216 131.3,286.445 
		172.989,291.537 143.59,321.53 151.63,362.752 114.02,344.06 	"/>
	<polygon fill="#008800" points="226.937,373.052 202.693,338.757 160.697,339.286 185.822,305.631 172.341,265.854 
		212.113,279.349 245.777,254.236 245.233,296.232 279.52,320.488 239.411,332.948 	"/>
	
		<rect x="1163" y="491.157" fill="#888800" stroke="#FFFFFF" stroke-width="4" stroke-miterlimit="10" width="245" height="16.458"/>
	
		<rect x="1163" y="325.154" fill="#888800" stroke="#FFFFFF" stroke-width="4" stroke-miterlimit="10" width="245" height="16.458"/>
	
		<rect x="1163" y="147.154" fill="#888800" stroke="#FFFFFF" stroke-width="4" stroke-miterlimit="10" width="245" height="16.458"/>
	<rect x="886" y="325.154" fill="#888800" stroke="#FFFFFF" stroke-width="4" stroke-miterlimit="10" width="245" height="16.458"/>
	<rect x="886" y="491.157" fill="#888800" stroke="#FFFFFF" stroke-width="4" stroke-miterlimit="10" width="245" height="16.458"/>
	<rect x="886" y="147.154" fill="#888800" stroke="#FFFFFF" stroke-width="4" stroke-miterlimit="10" width="245" height="16.458"/>
</g>
<g id="Joints">
	<circle stroke="#FFFFFF" stroke-width="4" stroke-miterlimit="10" cx="762.397" cy="697.174" r="10.704"/>
	<circle stroke="#FFFFFF" stroke-width="4" stroke-miterlimit="10" cx="1045.673" cy="697.174" r="10.704"/>
	<circle cx="138.826" cy="593.383" r="10.704"/>
	<circle cx="234.182" cy="701.47" r="10.704"/>
	<circle cx="336.641" cy="810.07" r="10.704"/>
	<circle stroke="#FFFFFF" stroke-width="4" stroke-miterlimit="10" cx="51.424" cy="472.704" r="10.704"/>
	<circle stroke="#FFFFFF" stroke-width="4" stroke-miterlimit="10" cx="479.233" cy="852.464" r="10.704"/>
	<circle fill="#000044" stroke="#FFFFFF" stroke-width="4" stroke-miterlimit="10" cx="111.41" cy="310.331" r="10.704"/>
	<circle fill="#0000BB" stroke="#FFFFFF" stroke-width="4" stroke-miterlimit="10" cx="217.109" cy="310.331" r="10.704"/>
	<circle fill="#000088" stroke="#FFFFFF" stroke-width="4" stroke-miterlimit="10" cx="1285.5" cy="500.411" r="10.704"/>
	<circle fill="#008800" stroke="#FFFFFF" stroke-width="4" stroke-miterlimit="10" cx="1285.5" cy="333.383" r="10.704"/>
	<circle fill="#880000" stroke="#FFFFFF" stroke-width="4" stroke-miterlimit="10" cx="1285.5" cy="155.383" r="10.704"/>
	<circle fill="#FF0000" stroke="#FFFFFF" stroke-width="4" stroke-miterlimit="10" cx="1008.5" cy="155.383" r="10.704"/>
	<circle fill="#00FF00" stroke="#FFFFFF" stroke-width="4" stroke-miterlimit="10" cx="1008.5" cy="333.383" r="10.704"/>
	<circle fill="#0000FF" stroke="#FFFFFF" stroke-width="4" stroke-miterlimit="10" cx="1008.5" cy="499.386" r="10.704"/>
</g>
</svg>
