<?xml version="1.0" encoding="utf-8"?>
<!-- Generator: Adobe Illustrator 17.0.2, SVG Export Plug-In . SVG Version: 6.00 Build 0)  -->
<!DOCTYPE svg PUBLIC "-//W3C//DTD SVG 1.1//EN" "http://www.w3.org/Graphics/SVG/1.1/DTD/svg11.dtd">
<svg version="1.1" id="Layer_1" xmlns="http://www.w3.org/2000/svg" xmlns:xlink="http://www.w3.org/1999/xlink" x="0px" y="0px"
	 width="1600px" height="1600px" viewBox="0 0 1600 1600" enable-background="new 0 0 1600 1600" xml:space="preserve">
<g id="Foreground">
</g>
<g id="Dynamic">
	<circle fill="#8B7765" cx="1100.727" cy="605.583" r="38.998"/>
	<circle fill="#8B7765" cx="489.777" cy="747.481" r="38.998"/>
	<circle fill="#8B7765" cx="981.273" cy="1266.401" r="38.998"/>
	
		<rect x="1193.537" y="976.534" transform="matrix(0.7511 -0.6602 0.6602 0.7511 -401.4362 1059.391)" fill="#8B7765" width="21.408" height="171.088"/>
	
		<rect x="580.969" y="329.481" transform="matrix(0.7511 -0.6602 0.6602 0.7511 -126.7266 493.9214)" fill="#8B7765" width="21.408" height="171.088"/>
	
		<rect x="1230.345" y="606.791" transform="matrix(0.7511 -0.6602 0.6602 0.7511 -192.2442 1014.8872)" fill="#8B7765" width="38.942" height="311.212"/>
	
		<rect x="627.655" y="1172.438" transform="matrix(0.7511 -0.6602 0.6602 0.7511 -671.6221 734.5604)" fill="#8B7765" width="21.408" height="171.088"/>
	<rect x="292.616" y="936.084" fill="#8B7765" width="82.496" height="79.496"/>
	<rect x="1020.481" y="345.031" fill="#8B7765" width="82.496" height="79.496"/>
	<circle fill="#8B7765" cx="331.319" cy="569.615" r="67.842"/>
	<rect x="758.481" y="1278.13" fill="#8B7765" width="37.226" height="35.872"/>
	<rect x="780.481" y="228.787" fill="#8B7765" width="37.226" height="35.872"/>
</g>
<g id="Background">
</g>
<g id="Static">
	<rect x="413.057" y="103.773" fill="#8B7765" width="776.301" height="22.408"/>
	<g id="Static_1_">
		<rect x="413.115" y="1475.233" fill="#8B7765" width="776.301" height="22.408"/>
	</g>
	<g id="Static_2_">
		
			<rect x="-179.234" y="442.647" transform="matrix(-0.5038 0.8638 -0.8638 -0.5038 706.1935 502.0513)" fill="#8B7765" width="776.273" height="22.408"/>
		<g id="Static_3_">
			
				<rect x="1005.484" y="1133.515" transform="matrix(-0.5038 0.8638 -0.8638 -0.5038 3084.5637 517.6075)" fill="#8B7765" width="776.273" height="22.408"/>
		</g>
	</g>
	<g id="Static_4_">
		
			<rect x="-183.75" y="1132.359" transform="matrix(0.4954 0.8686 -0.8686 0.4954 1096.4661 399.4954)" fill="#8B7765" width="776.213" height="22.406"/>
		<g id="Static_5_">
			
				<rect x="1007.538" y="452.848" transform="matrix(0.4954 0.8686 -0.8686 0.4954 1107.3007 -978.178)" fill="#8B7765" width="776.213" height="22.406"/>
		</g>
	</g>
</g>
<g id="Joints">
</g>
<g id="Special">
	<circle id="Player" fill="#FF8877" cx="477.777" cy="1202.248" r="38.998"/>
	<rect id="Goal" x="759.119" y="767.217" fill="#00FFFF" width="73.177" height="73.177"/>
</g>
</svg>
