<?xml version="1.0" encoding="utf-8"?>
<!-- Generator: Adobe Illustrator 17.0.2, SVG Export Plug-In . SVG Version: 6.00 Build 0)  -->
<!DOCTYPE svg PUBLIC "-//W3C//DTD SVG 1.1//EN" "http://www.w3.org/Graphics/SVG/1.1/DTD/svg11.dtd">
<svg version="1.1" id="Layer_1" xmlns="http://www.w3.org/2000/svg" xmlns:xlink="http://www.w3.org/1999/xlink" x="0px" y="0px"
	 width="3200px" height="3200px" viewBox="0 0 3200 3200" enable-background="new 0 0 3200 3200" xml:space="preserve">
<g id="Fields">
	<polyline opacity="0.5" fill="#888888" enable-background="new    " points="1600,1600 424.907,1600 1012.453,2617.66 	"/>
	<polyline opacity="0.5" fill="#888888" enable-background="new    " points="2775.093,1600 1600,1600 2187.547,2617.66 	"/>
	<polyline opacity="0.5" fill="#888888" enable-background="new    " points="2187.547,582.34 1012.453,582.34 1600,1600 	"/>
	<polyline opacity="0.5" fill="#888888" enable-background="new    " points="1600,1600 2187.547,2617.66 1012.453,2617.66 	"/>
	<polyline opacity="0.5" fill="#888888" enable-background="new    " points="424.907,1600 1600,1600 1012.453,582.34 	"/>
	<polyline opacity="0.5" fill="#888888" enable-background="new    " points="1600,1600 2775.093,1600 2187.547,582.34 	"/>
	
		<line fill="none" stroke="#000000" stroke-width="10" stroke-miterlimit="10" x1="1140.137" y1="540.444" x2="963.422" y2="1542.643"/>
	
		<line fill="none" stroke="#000000" stroke-width="10" stroke-miterlimit="10" x1="457.697" y1="1464.909" x2="1237.27" y2="2119.047"/>
	
		<line fill="none" stroke="#000000" stroke-width="10" stroke-miterlimit="10" x1="916.425" y1="2524.57" x2="1872.712" y2="2176.51"/>
	
		<line fill="none" stroke="#000000" stroke-width="10" stroke-miterlimit="10" x1="2052.595" y1="2659.481" x2="2229.309" y2="1657.282"/>
	
		<line fill="none" stroke="#000000" stroke-width="10" stroke-miterlimit="10" x1="2735.89" y1="1734.952" x2="1956.318" y2="1080.813"/>
	
		<line fill="none" stroke="#000000" stroke-width="10" stroke-miterlimit="10" x1="2287.993" y1="678.45" x2="1331.703" y2="1026.509"/>
</g>
<g id="Foreground">
</g>
<g id="Dynamic">
	<circle fill="#776655" cx="2057.53" cy="1302.68" r="58.497"/>
	<circle fill="#AA9988" cx="1141.105" cy="1515.527" r="58.497"/>
	<circle fill="#998877" cx="1878.349" cy="2293.907" r="43.873"/>
	
		<rect x="2196.773" y="1859.1" transform="matrix(-0.7511 0.6602 -0.6602 -0.7511 5186.9565 2019.2599)" fill="#8B7765" width="32.112" height="256.638"/>
	
		<rect x="1277.911" y="888.52" transform="matrix(-0.7511 0.6602 -0.6602 -0.7511 2937.1697 926.3096)" fill="#BBBBBB" width="32.112" height="256.638"/>
	
		<rect x="2251.983" y="1304.48" transform="matrix(-0.7511 0.6602 -0.6602 -0.7511 5009.8892 1186.968)" fill="#8B7765" width="58.414" height="466.83"/>
	
		<rect x="1347.947" y="2152.962" transform="matrix(-0.7511 0.6602 -0.6602 -0.7511 3894.5881 3094.2312)" fill="#8B7765" width="32.112" height="256.638"/>
	<rect x="845.363" y="1798.432" fill="#555555" width="123.744" height="119.244"/>
	<rect x="1937.161" y="911.852" fill="#8B7765" width="123.744" height="119.244"/>
	<circle fill="#8B7765" cx="903.418" cy="1248.728" r="101.763"/>
	<rect x="1544.161" y="2311.5" fill="#8B7765" width="55.839" height="53.808"/>
	<rect x="1577.161" y="737.486" fill="#8B7765" width="55.839" height="53.808"/>
	<polygon fill="#888888" points="1670.461,1214.965 1638.868,1201.686 1634.572,1167.686 1661.869,1146.965 1693.462,1160.245 
		1697.758,1194.245 	"/>
</g>
<g id="Background">
</g>
<g id="Joints">
</g>
<g id="Special">
	<circle id="Player" fill="#FF8877" cx="1123.105" cy="2197.678" r="30"/>
	<polygon id="Goal" fill="#00FFFF" points="1566.917,1657.299 1533.835,1600 1566.917,1542.698 1633.082,1542.698 1666.165,1600 
		1633.082,1657.299 	"/>
</g>
</svg>
